<svg width="50" height="20" viewBox="0 0 56 20" fill="none" xmlns="http://www.w3.org/2000/svg">
                    <circle cx="10" cy="10" r="9.75" fill="#FF3131" stroke="black" stroke-width="0.5"/>
                    <path d="M7.88885 16.2874V16.5374H8.13885H11.9815H12.2315V16.2874V12.1114H16.4075H16.6575V11.8614V8.01873V7.76873H16.4075H12.2315V3.59277V3.34277H11.9815H8.13885H7.88885V3.59277V7.76873H3.71289H3.46289V8.01873V11.8614V12.1114H3.71289H7.88885V16.2874Z" fill="white" stroke="black" stroke-width="0.5"/>
                    <path d="M21.5132 8.92861L23.6772 2.08203H25.5046L27.6266 8.92861H26.0141L24.6821 4.2906C24.6447 4.16529 24.6135 4.05565 24.5886 3.96167C24.5668 3.86455 24.5465 3.78154 24.5278 3.71262H24.5138C24.4951 3.78154 24.4733 3.86299 24.4484 3.95697C24.4265 4.05095 24.3985 4.16216 24.3642 4.2906L23.0929 8.92861H21.5132ZM22.7518 7.56117L22.9808 6.47098H26.1029L26.3506 7.56117H22.7518Z" fill="black"/>
                    <path d="M27.9771 8.92861V2.08673H30.7253C31.3859 2.08673 31.9078 2.28409 32.2911 2.67882C32.6774 3.07354 32.8706 3.59357 32.8706 4.23891C32.8706 4.90305 32.6681 5.44345 32.263 5.8601C31.858 6.27362 31.3392 6.48038 30.7066 6.48038H29.6176V8.92861H27.9771ZM29.6176 5.40429H30.3561C30.6739 5.40429 30.8967 5.30404 31.0245 5.10355C31.1553 4.90305 31.2208 4.64617 31.2208 4.3329C31.2208 4.01649 31.1553 3.75961 31.0245 3.56224C30.8967 3.36175 30.6739 3.25994 30.3561 3.2568H29.6176V5.40429ZM31.3657 8.92861L30.1037 5.93998L31.562 5.54056L33.1511 8.92861H31.3657Z" fill="black"/>
                    <path d="M32.8613 2.08673H34.5345L35.8058 6.46158C35.8245 6.52737 35.8432 6.59629 35.8619 6.66834C35.8806 6.73726 35.8993 6.80148 35.918 6.86101H35.9367C35.9491 6.80148 35.9647 6.73413 35.9834 6.65895C36.0052 6.58063 36.0255 6.51484 36.0442 6.46158L37.3061 2.08673H38.9046L36.8013 8.9662H34.9598L32.8613 2.08673Z" fill="black"/>
                    <path d="M39.1944 8.92861V2.08673H40.8582V8.92861H39.1944Z" fill="black"/>
                    <path d="M22.0133 17.3494V10.5075H24.3035L25.5981 14.4641C25.6293 14.5738 25.6589 14.6803 25.6869 14.7837C25.715 14.8871 25.7399 14.9967 25.7617 15.1126H25.7851C25.8038 14.9967 25.8271 14.8871 25.8552 14.7837C25.8832 14.6803 25.9144 14.5738 25.9487 14.4641L27.2433 10.5075H29.5335V17.3494H27.921V13.3176C27.921 13.211 27.921 13.092 27.921 12.9604C27.9241 12.8289 27.9304 12.7098 27.9397 12.6033H27.9117C27.893 12.7161 27.8681 12.8367 27.8369 12.9651C27.8057 13.0904 27.7746 13.2079 27.7434 13.3176L26.4815 17.3494H24.9999L23.7286 13.3176C23.6974 13.2079 23.6647 13.081 23.6304 12.9369C23.5962 12.7897 23.5744 12.6785 23.565 12.6033H23.537C23.5432 12.6785 23.5479 12.7897 23.551 12.9369C23.5572 13.0842 23.5603 13.211 23.5603 13.3176V17.3494H22.0133Z" fill="black"/>
                    <path d="M30.3888 17.3494V10.5075H34.7869V11.8138H31.9639V13.2988H34.3709V14.4547H31.9639V16.0853H34.8523V17.3494H30.3888Z" fill="black"/>
                    <path d="M35.3431 17.3494V10.5075H37.7268C38.6023 10.5075 39.2863 10.791 39.7786 11.358C40.2709 11.9219 40.517 12.7129 40.517 13.7311V14.1023C40.517 15.1173 40.2709 15.913 39.7786 16.4894C39.2894 17.0627 38.6054 17.3494 37.7268 17.3494H35.3431ZM36.9416 16.2028H37.5679C37.9823 16.2028 38.3016 16.0462 38.526 15.7329C38.7503 15.4196 38.8625 14.9513 38.8625 14.3279V13.5384C38.8625 12.9056 38.7472 12.442 38.5166 12.1475C38.2861 11.8499 37.9698 11.6995 37.5679 11.6964H36.9416V16.2028Z" fill="black"/>
                    <path d="M41.2508 17.3494V10.5075H42.9147V17.3494H41.2508Z" fill="black"/>
                    <path d="M43.7934 17.3494V10.5075H45.4339V13.0967L47.3128 10.5075H48.9954L45.4339 15.1079V17.3494H43.7934ZM47.3689 17.3494L45.448 14.0459L46.4295 12.8101L49.2151 17.3494H47.3689Z" fill="black"/>
                    <path d="M49.173 17.3494L51.337 10.5028H53.1645L55.2864 17.3494H53.6739L52.3419 12.7114C52.3045 12.5861 52.2733 12.4764 52.2484 12.3824C52.2266 12.2853 52.2063 12.2023 52.1876 12.1334H52.1736C52.1549 12.2023 52.1331 12.2838 52.1082 12.3777C52.0864 12.4717 52.0583 12.5829 52.0241 12.7114L50.7528 17.3494H49.173ZM50.4116 15.9819L50.6406 14.8918H53.7627L54.0104 15.9819H50.4116Z" fill="black"/>
                </svg> 
